<mxfile host="app.diagrams.net" modified="2024-04-18T12:16:42.774Z" agent="Mozilla/5.0 (Windows NT 10.0; Win64; x64) AppleWebKit/537.36 (KHTML, like Gecko) Chrome/123.0.0.0 Safari/537.36" version="24.2.2" etag="d5mj8KHpc0slGnhH7rH6" type="github">
  <diagram name="PÃ¡gina-1" id="DRGdbcNws5Ap7r7DVEI7">
    <mxGraphModel>
      <root>
        <mxCell id="0" />
        <mxCell id="1" parent="0" />
      </root>
    </mxGraphModel>
  </diagram>
</mxfile>
